<?xml version="1.0" encoding="UTF-8" standalone="no"?>
<svg
   xmlns:dc="http://purl.org/dc/elements/1.1/"
   xmlns:cc="http://creativecommons.org/ns#"
   xmlns:rdf="http://www.w3.org/1999/02/22-rdf-syntax-ns#"
   xmlns:svg="http://www.w3.org/2000/svg"
   xmlns="http://www.w3.org/2000/svg"
   xmlns:xlink="http://www.w3.org/1999/xlink"
   xmlns:sodipodi="http://sodipodi.sourceforge.net/DTD/sodipodi-0.dtd"
   xmlns:inkscape="http://www.inkscape.org/namespaces/inkscape"
   width="210mm"
   height="297mm"
   viewBox="0 0 210 297"
   version="1.1"
   id="svg8"
   inkscape:version="1.0.2 (e86c8708, 2021-01-15)"
   sodipodi:docname="drawing.svg">
  <defs
     id="defs2" />
  <sodipodi:namedview
     id="base"
     pagecolor="#ffffff"
     bordercolor="#666666"
     borderopacity="1.0"
     inkscape:pageopacity="0.0"
     inkscape:pageshadow="2"
     inkscape:zoom="1.979899"
     inkscape:cx="382.32233"
     inkscape:cy="309.21863"
     inkscape:document-units="mm"
     inkscape:current-layer="layer1"
     inkscape:document-rotation="0"
     showgrid="false"
     inkscape:window-width="1252"
     inkscape:window-height="1174"
     inkscape:window-x="1213"
     inkscape:window-y="86"
     inkscape:window-maximized="0" />
  <metadata
     id="metadata5">
    <rdf:RDF>
      <cc:Work
         rdf:about="">
        <dc:format>image/svg+xml</dc:format>
        <dc:type
           rdf:resource="http://purl.org/dc/dcmitype/StillImage" />
        <dc:title></dc:title>
      </cc:Work>
    </rdf:RDF>
  </metadata>
  <g
     inkscape:label="Layer 1"
     inkscape:groupmode="layer"
     id="layer1">
    <path
       style="fill:#000000;stroke-width:0.264583"
       d="m 104.6479,118.46558 0.62939,-1.1261 0.41406,-1.58588 0.41407,-1.58589 0.14052,-3.96875 0.14052,-3.96875 0.27765,-1.5875 0.27766,-1.5875 0.64839,-1.37377 0.6484,-1.37377 1.18603,-1.319159 1.18603,-1.319157 1.77855,-1.113451 1.77855,-1.113449 0.0873,-0.07324 0.0873,-0.07324 -1.60979,-1.91725 -1.6098,-1.917248 -0.72642,-1.479174 -0.72643,-1.479172 -0.0579,-2.513541 -0.0579,-2.513542 0.34275,1.353738 0.34276,1.353741 0.72197,1.231953 0.72197,1.23195 1.57537,1.684078 1.57537,1.684078 2.16229,1.683356 2.16228,1.683356 0.78307,0.680286 0.78307,0.680289 -0.79858,2.097836 -0.79858,2.097842 -0.32534,1.39621 -0.32534,1.39621 0.16431,0.87584 0.16431,0.87584 0.93543,1.09284 0.93544,1.09285 0.75871,0.54024 0.75871,0.54025 1.7435,-3.14443 1.7435,-3.14444 1.05046,1.05046 1.05046,1.05045 0.99809,-0.59946 0.99808,-0.59947 2.44853,-1.71678 2.44852,-1.716782 0.29229,-1.082415 0.29229,-1.082416 -0.91133,-4.490434 -0.91132,-4.490432 0.35332,-1.174014 0.35333,-1.174012 v -0.650608 -0.65061 l -1.08879,-2.416194 -1.08879,-2.416196 0.45832,-2.513542 0.45833,-2.513541 0.13524,-3.704167 0.13524,-3.704167 -0.30946,-2.32325 -0.30947,-2.323251 -0.65331,-2.306958 -0.65332,-2.306957 -1.31055,-2.645834 -1.31055,-2.645833 -1.32251,-1.744477 -1.32251,-1.744475 -1.89538,-1.788006 -1.89538,-1.788004 -2.38615,-1.566834 -2.38616,-1.56683 -2.01229,-0.954977 -2.0123,-0.954976 -3.04271,-1.016826 -3.04271,-1.016825 1.5875,0.147566 1.5875,0.147566 2.51354,0.403637 2.51354,0.403638 2.77813,0.905933 2.77812,0.905936 2.41616,1.172909 2.41616,1.172908 2.47863,1.645365 2.47864,1.645364 3.32487,3.324871 3.32487,3.32487 1.64536,2.478636 1.64537,2.478635 1.17291,2.416156 1.1729,2.416157 0.90594,2.778125 0.90593,2.778125 0.42304,2.513541 0.42304,2.513542 0.17069,2.655057 0.1707,2.655056 -0.32545,3.165777 -0.32545,3.165777 -0.73466,2.910416 -0.73466,2.910417 -0.98121,2.38125 -0.98121,2.38125 -1.20962,2.116667 -1.20963,2.116666 -1.20471,1.69676 -1.20472,1.69677 -2.26111,2.3788 -2.26111,2.37881 -2.33987,1.81047 -2.33986,1.81046 -2.55493,1.4305 -2.55492,1.4305 -2.39564,0.94433 -2.39563,0.94432 -2.76374,0.65897 -2.76374,0.65897 -2.74001,0.27444 -2.74002,0.27444 h -1.54084 -1.54084 z m 23.81689,-31.282325 -1.47905,-2.245915 -0.14429,-0.376015 -0.14429,-0.376016 0.55424,-0.175911 0.55425,-0.17591 0.80705,0.177257 0.80705,0.177258 0.50915,0.834646 0.50915,0.834647 0.16251,0.859896 0.16251,0.859896 -0.17373,0.926041 -0.17373,0.926042 h -0.23588 -0.23589 z m -56.630407,-0.04644 -0.79375,-0.0964 -2.43024,-0.540493 -2.430243,-0.540491 -0.21559,-1.506276 -0.215593,-1.506273 0.02336,-3.96875 0.02336,-3.96875 0.468183,-2.645833 0.468183,-2.645833 0.905933,-2.778125 0.905936,-2.778125 1.172909,-2.416157 1.172908,-2.416156 1.570125,-2.347365 1.570125,-2.347362 1.622824,-1.718771 1.622825,-1.718773 -0.767951,1.5875 -0.76795,1.5875 -0.714399,2.082385 -0.714399,2.082385 -0.51004,2.28324 -0.51004,2.28324 -0.16996,2.78493 -0.169958,2.784928 0.710938,0.323927 0.710938,0.323924 h 0.08935 0.08936 l 0.181776,-1.454888 0.181777,-1.454886 0.654397,-2.447719 0.654399,-2.447716 1.30887,-2.741567 1.308867,-2.74157 1.167834,-1.636573 1.167834,-1.636572 1.699784,-1.574982 1.699786,-1.574986 1.492499,-0.887574 1.492499,-0.887576 1.612077,-0.651145 1.612077,-0.651147 1.768978,-0.374915 1.768977,-0.374912 h 3.704167 3.704165 l 1.79733,0.380847 1.79733,0.380843 2.52901,1.198005 2.52901,1.198001 1.63346,1.165614 1.63346,1.165611 1.71312,1.816516 1.71311,1.816513 0.98619,1.877859 0.9862,1.877859 0.39896,1.692508 0.39896,1.69251 0.004,1.743615 0.004,1.743612 -0.50584,1.960554 -0.50583,1.960552 -0.26709,0.69005 -0.26709,0.690051 -1.80677,-0.356311 -1.80676,-0.356312 -2.91041,-0.16659 -2.91042,-0.166589 -2.46275,0.430792 -2.46275,0.430792 -2.04168,0.787357 -2.041679,0.787355 -2.062006,1.353685 -2.062004,1.353688 -4.149191,4.01605 -4.149188,4.016049 -1.459039,1.101061 -1.45904,1.101061 -1.71596,0.801756 -1.715961,0.801757 -1.852083,0.266594 -1.852084,0.266597 -2.38125,-0.0344 -2.38125,-0.0344 -0.79375,-0.0964 z m 17.962661,-16.626951 0.176363,-1.72139 0.761672,-3.015893 0.761675,-3.015893 1.077309,-2.298919 1.077309,-2.29892 1.192806,-1.671566 1.192807,-1.671569 1.376114,-1.20379 1.376114,-1.203791 1.493097,-0.795811 1.49309,-0.795814 1.55539,-0.405127 1.5554,-0.405128 h 1.13503 1.13504 v -0.233336 -0.233336 l -2.31511,-0.757362 -2.3151,-0.757359 -2.38125,-0.0016 -2.38125,-0.0016 -1.577318,0.774444 -1.577317,0.774446 -1.734669,1.739095 -1.734666,1.739099 -0.985327,1.999726 -0.985327,1.999726 -0.523531,2.046988 -0.523531,2.046986 -0.284954,2.801348 -0.284953,2.801347 0.159848,1.883188 0.15985,1.883191 0.111551,0.552315 0.111551,0.552312 0.601062,0.289676 0.601065,0.289674 0.161901,0.01791 0.161898,0.01791 0.176361,-1.72139 z"
       id="path72" />
  </g>
</svg>
